<mxfile host="Electron" modified="2023-11-30T18:33:30.013Z" agent="Mozilla/5.0 (X11; Linux x86_64) AppleWebKit/537.36 (KHTML, like Gecko) draw.io/22.1.2 Chrome/114.0.5735.289 Electron/25.9.4 Safari/537.36" etag="jsdy35nUPFzxgW9aSwi-" version="22.1.2" type="device">
  <diagram name="Seite-1" id="gu7jWi_EN4bWWNkUDX3a">
    <mxGraphModel dx="1434" dy="838" grid="1" gridSize="10" guides="1" tooltips="1" connect="1" arrows="1" fold="1" page="1" pageScale="1" pageWidth="827" pageHeight="1169" math="0" shadow="0">
      <root>
        <mxCell id="0" />
        <mxCell id="1" parent="0" />
        <mxCell id="__3lZr4yAjqDn0vFssuv-1" value="sd Textbeitrag hochladen" style="shape=umlFrame;whiteSpace=wrap;html=1;pointerEvents=0;width=160;height=30;" parent="1" vertex="1">
          <mxGeometry width="600" height="480" as="geometry" />
        </mxCell>
        <mxCell id="__3lZr4yAjqDn0vFssuv-2" value=":User-Management-Plattform" style="shape=umlLifeline;perimeter=lifelinePerimeter;whiteSpace=wrap;html=1;container=1;dropTarget=0;collapsible=0;recursiveResize=0;outlineConnect=0;portConstraint=eastwest;newEdgeStyle={&quot;curved&quot;:0,&quot;rounded&quot;:0};" parent="1" vertex="1">
          <mxGeometry x="40" y="50" width="170" height="380" as="geometry" />
        </mxCell>
        <mxCell id="__3lZr4yAjqDn0vFssuv-7" value="" style="html=1;points=[[0,0,0,0,5],[0,1,0,0,-5],[1,0,0,0,5],[1,1,0,0,-5]];perimeter=orthogonalPerimeter;outlineConnect=0;targetShapes=umlLifeline;portConstraint=eastwest;newEdgeStyle={&quot;curved&quot;:0,&quot;rounded&quot;:0};" parent="__3lZr4yAjqDn0vFssuv-2" vertex="1">
          <mxGeometry x="80" y="65" width="10" height="75" as="geometry" />
        </mxCell>
        <mxCell id="__3lZr4yAjqDn0vFssuv-3" value=":ULFX" style="shape=umlLifeline;perimeter=lifelinePerimeter;whiteSpace=wrap;html=1;container=1;dropTarget=0;collapsible=0;recursiveResize=0;outlineConnect=0;portConstraint=eastwest;newEdgeStyle={&quot;curved&quot;:0,&quot;rounded&quot;:0};" parent="1" vertex="1">
          <mxGeometry x="230" y="50" width="100" height="380" as="geometry" />
        </mxCell>
        <mxCell id="__3lZr4yAjqDn0vFssuv-8" value="" style="html=1;points=[[0,0,0,0,5],[0,1,0,0,-5],[1,0,0,0,5],[1,1,0,0,-5]];perimeter=orthogonalPerimeter;outlineConnect=0;targetShapes=umlLifeline;portConstraint=eastwest;newEdgeStyle={&quot;curved&quot;:0,&quot;rounded&quot;:0};" parent="__3lZr4yAjqDn0vFssuv-3" vertex="1">
          <mxGeometry x="45" y="60" width="10" height="80" as="geometry" />
        </mxCell>
        <mxCell id="__3lZr4yAjqDn0vFssuv-15" value="" style="html=1;points=[[0,0,0,0,5],[0,1,0,0,-5],[1,0,0,0,5],[1,1,0,0,-5]];perimeter=orthogonalPerimeter;outlineConnect=0;targetShapes=umlLifeline;portConstraint=eastwest;newEdgeStyle={&quot;curved&quot;:0,&quot;rounded&quot;:0};" parent="__3lZr4yAjqDn0vFssuv-3" vertex="1">
          <mxGeometry x="45" y="160" width="10" height="40" as="geometry" />
        </mxCell>
        <mxCell id="__3lZr4yAjqDn0vFssuv-5" value="" style="shape=umlLifeline;perimeter=lifelinePerimeter;whiteSpace=wrap;html=1;container=1;dropTarget=0;collapsible=0;recursiveResize=0;outlineConnect=0;portConstraint=eastwest;newEdgeStyle={&quot;curved&quot;:0,&quot;rounded&quot;:0};participant=umlActor;" parent="1" vertex="1">
          <mxGeometry x="404" y="50" width="20" height="380" as="geometry" />
        </mxCell>
        <mxCell id="__3lZr4yAjqDn0vFssuv-9" value="" style="html=1;points=[];perimeter=orthogonalPerimeter;outlineConnect=0;targetShapes=umlLifeline;portConstraint=eastwest;newEdgeStyle={&quot;edgeStyle&quot;:&quot;elbowEdgeStyle&quot;,&quot;elbow&quot;:&quot;vertical&quot;,&quot;curved&quot;:0,&quot;rounded&quot;:0};" parent="__3lZr4yAjqDn0vFssuv-5" vertex="1">
          <mxGeometry x="5" y="60" width="10" height="80" as="geometry" />
        </mxCell>
        <mxCell id="__3lZr4yAjqDn0vFssuv-6" value="Benutzer" style="text;html=1;align=center;verticalAlign=middle;resizable=0;points=[];autosize=1;strokeColor=none;fillColor=none;" parent="1" vertex="1">
          <mxGeometry x="379" y="28" width="70" height="30" as="geometry" />
        </mxCell>
        <mxCell id="__3lZr4yAjqDn0vFssuv-10" value="Beitrag xyz hochladen&lt;br&gt;&amp;nbsp;mit UUID, Session" style="html=1;verticalAlign=bottom;endArrow=block;curved=0;rounded=0;entryX=1;entryY=0;entryDx=0;entryDy=5;entryPerimeter=0;" parent="1" source="__3lZr4yAjqDn0vFssuv-9" target="__3lZr4yAjqDn0vFssuv-8" edge="1">
          <mxGeometry x="-0.0667" y="15" relative="1" as="geometry">
            <mxPoint x="220" y="115" as="sourcePoint" />
            <mxPoint as="offset" />
          </mxGeometry>
        </mxCell>
        <mxCell id="__3lZr4yAjqDn0vFssuv-11" value="Kontrolliere UUID&lt;br&gt;und Session" style="html=1;verticalAlign=bottom;endArrow=block;curved=0;rounded=0;entryX=1;entryY=0;entryDx=0;entryDy=5;entryPerimeter=0;" parent="1" source="__3lZr4yAjqDn0vFssuv-8" target="__3lZr4yAjqDn0vFssuv-7" edge="1">
          <mxGeometry x="0.0556" y="15" relative="1" as="geometry">
            <mxPoint x="44" y="125" as="sourcePoint" />
            <mxPoint as="offset" />
          </mxGeometry>
        </mxCell>
        <mxCell id="__3lZr4yAjqDn0vFssuv-12" value="Rückgabe (OK, NOK)" style="html=1;verticalAlign=bottom;endArrow=open;dashed=1;endSize=8;curved=0;rounded=0;exitX=1;exitY=1;exitDx=0;exitDy=-5;exitPerimeter=0;" parent="1" source="__3lZr4yAjqDn0vFssuv-7" target="__3lZr4yAjqDn0vFssuv-8" edge="1">
          <mxGeometry relative="1" as="geometry">
            <mxPoint x="284" y="195" as="targetPoint" />
          </mxGeometry>
        </mxCell>
        <mxCell id="__3lZr4yAjqDn0vFssuv-13" value="alt" style="shape=umlFrame;whiteSpace=wrap;html=1;pointerEvents=0;" parent="1" vertex="1">
          <mxGeometry x="19" y="200" width="530" height="210" as="geometry" />
        </mxCell>
        <mxCell id="__3lZr4yAjqDn0vFssuv-14" value="[check = nok]" style="text;html=1;align=center;verticalAlign=middle;resizable=0;points=[];autosize=1;strokeColor=none;fillColor=none;" parent="1" vertex="1">
          <mxGeometry x="11" y="226" width="90" height="30" as="geometry" />
        </mxCell>
        <mxCell id="__3lZr4yAjqDn0vFssuv-16" value="Session abgelaufen&lt;br&gt;neu Anmelden" style="html=1;verticalAlign=bottom;endArrow=open;dashed=1;endSize=8;curved=0;rounded=0;exitX=1;exitY=1;exitDx=0;exitDy=-5;exitPerimeter=0;entryX=0;entryY=1;entryDx=0;entryDy=-5;entryPerimeter=0;" parent="1" source="__3lZr4yAjqDn0vFssuv-15" target="__3lZr4yAjqDn0vFssuv-17" edge="1">
          <mxGeometry x="-0.0078" y="-15" relative="1" as="geometry">
            <mxPoint x="209" y="285" as="targetPoint" />
            <mxPoint as="offset" />
          </mxGeometry>
        </mxCell>
        <mxCell id="__3lZr4yAjqDn0vFssuv-17" value="" style="html=1;points=[[0,0,0,0,5],[0,1,0,0,-5],[1,0,0,0,5],[1,1,0,0,-5]];perimeter=orthogonalPerimeter;outlineConnect=0;targetShapes=umlLifeline;portConstraint=eastwest;newEdgeStyle={&quot;curved&quot;:0,&quot;rounded&quot;:0};" parent="1" vertex="1">
          <mxGeometry x="409" y="210" width="10" height="40" as="geometry" />
        </mxCell>
        <mxCell id="__3lZr4yAjqDn0vFssuv-18" value="" style="line;strokeWidth=1;fillColor=none;align=left;verticalAlign=middle;spacingTop=-1;spacingLeft=3;spacingRight=3;rotatable=0;labelPosition=right;points=[];portConstraint=eastwest;strokeColor=inherit;" parent="1" vertex="1">
          <mxGeometry x="19" y="270" width="530" height="8" as="geometry" />
        </mxCell>
        <mxCell id="__3lZr4yAjqDn0vFssuv-19" value="[check = ok]" style="text;html=1;align=center;verticalAlign=middle;resizable=0;points=[];autosize=1;strokeColor=none;fillColor=none;" parent="1" vertex="1">
          <mxGeometry x="11" y="272" width="90" height="30" as="geometry" />
        </mxCell>
        <mxCell id="__3lZr4yAjqDn0vFssuv-21" value=":Datenbank" style="shape=umlLifeline;perimeter=lifelinePerimeter;whiteSpace=wrap;html=1;container=1;dropTarget=0;collapsible=0;recursiveResize=0;outlineConnect=0;portConstraint=eastwest;newEdgeStyle={&quot;curved&quot;:0,&quot;rounded&quot;:0};" parent="1" vertex="1">
          <mxGeometry x="460" y="50" width="100" height="380" as="geometry" />
        </mxCell>
        <mxCell id="__3lZr4yAjqDn0vFssuv-26" value="" style="html=1;points=[[0,0,0,0,5],[0,1,0,0,-5],[1,0,0,0,5],[1,1,0,0,-5]];perimeter=orthogonalPerimeter;outlineConnect=0;targetShapes=umlLifeline;portConstraint=eastwest;newEdgeStyle={&quot;curved&quot;:0,&quot;rounded&quot;:0};" parent="__3lZr4yAjqDn0vFssuv-21" vertex="1">
          <mxGeometry x="45" y="240" width="10" height="50" as="geometry" />
        </mxCell>
        <mxCell id="__3lZr4yAjqDn0vFssuv-22" value="" style="html=1;points=[[0,0,0,0,5],[0,1,0,0,-5],[1,0,0,0,5],[1,1,0,0,-5]];perimeter=orthogonalPerimeter;outlineConnect=0;targetShapes=umlLifeline;portConstraint=eastwest;newEdgeStyle={&quot;curved&quot;:0,&quot;rounded&quot;:0};" parent="1" vertex="1">
          <mxGeometry x="275" y="290" width="10" height="100" as="geometry" />
        </mxCell>
        <mxCell id="__3lZr4yAjqDn0vFssuv-27" value="Beitrag xyz von UUID speichern" style="html=1;verticalAlign=bottom;endArrow=block;curved=0;rounded=0;entryX=0;entryY=0;entryDx=0;entryDy=5;exitX=1;exitY=0;exitDx=0;exitDy=5;exitPerimeter=0;" parent="1" source="__3lZr4yAjqDn0vFssuv-22" target="__3lZr4yAjqDn0vFssuv-26" edge="1">
          <mxGeometry relative="1" as="geometry">
            <mxPoint x="435" y="295" as="sourcePoint" />
          </mxGeometry>
        </mxCell>
        <mxCell id="__3lZr4yAjqDn0vFssuv-28" value="Rückgabe (OK)" style="html=1;verticalAlign=bottom;endArrow=open;dashed=1;endSize=8;curved=0;rounded=0;exitX=0;exitY=1;exitDx=0;exitDy=-5;" parent="1" source="__3lZr4yAjqDn0vFssuv-26" target="__3lZr4yAjqDn0vFssuv-22" edge="1">
          <mxGeometry relative="1" as="geometry">
            <mxPoint x="435" y="365" as="targetPoint" />
          </mxGeometry>
        </mxCell>
        <mxCell id="__3lZr4yAjqDn0vFssuv-29" value="" style="html=1;points=[[0,0,0,0,5],[0,1,0,0,-5],[1,0,0,0,5],[1,1,0,0,-5]];perimeter=orthogonalPerimeter;outlineConnect=0;targetShapes=umlLifeline;portConstraint=eastwest;newEdgeStyle={&quot;curved&quot;:0,&quot;rounded&quot;:0};" parent="1" vertex="1">
          <mxGeometry x="409" y="360" width="10" height="30" as="geometry" />
        </mxCell>
        <mxCell id="__3lZr4yAjqDn0vFssuv-30" value="Beitrag xyz anzeigen" style="html=1;verticalAlign=bottom;endArrow=open;dashed=1;endSize=8;curved=0;rounded=0;exitX=1;exitY=1;exitDx=0;exitDy=-5;exitPerimeter=0;entryX=0;entryY=1;entryDx=0;entryDy=-5;entryPerimeter=0;" parent="1" source="__3lZr4yAjqDn0vFssuv-22" target="__3lZr4yAjqDn0vFssuv-29" edge="1">
          <mxGeometry relative="1" as="geometry">
            <mxPoint x="390" y="420" as="sourcePoint" />
            <mxPoint x="310" y="420" as="targetPoint" />
          </mxGeometry>
        </mxCell>
        <mxCell id="__3lZr4yAjqDn0vFssuv-32" value="" style="shape=umlDestroy;whiteSpace=wrap;html=1;strokeWidth=3;targetShapes=umlLifeline;" parent="1" vertex="1">
          <mxGeometry x="110" y="419" width="30" height="31" as="geometry" />
        </mxCell>
        <mxCell id="__3lZr4yAjqDn0vFssuv-33" value="" style="shape=umlDestroy;whiteSpace=wrap;html=1;strokeWidth=3;targetShapes=umlLifeline;" parent="1" vertex="1">
          <mxGeometry x="265" y="419" width="30" height="31" as="geometry" />
        </mxCell>
        <mxCell id="__3lZr4yAjqDn0vFssuv-34" value="" style="shape=umlDestroy;whiteSpace=wrap;html=1;strokeWidth=3;targetShapes=umlLifeline;" parent="1" vertex="1">
          <mxGeometry x="399" y="419" width="30" height="31" as="geometry" />
        </mxCell>
        <mxCell id="__3lZr4yAjqDn0vFssuv-35" value="" style="shape=umlDestroy;whiteSpace=wrap;html=1;strokeWidth=3;targetShapes=umlLifeline;" parent="1" vertex="1">
          <mxGeometry x="495" y="419" width="30" height="31" as="geometry" />
        </mxCell>
      </root>
    </mxGraphModel>
  </diagram>
</mxfile>
